<svg xmlns="http://www.w3.org/2000/svg" viewBox="0 0 391.694 88" enable-background="new 0 0 391.694 88"><style type="text/css">.st0{fill:#3A4C00;} .st1{fill:#231F20;} .st2{fill:#596446;}</style><path d="M54.7 87.75h.33v.17c-.34-.1-.17 0-.34-.17m-1.1-.17l.34.34c-.4.16-.58-.1-.33-.34m-2.24 0c.17.25.33.17 0 .34v-.34zm-1.25 0c.1.1.34.1.18.34-.17-.1-.5-.25-.17-.34m-7-.16h.34v.16c-.33-.08-.16 0-.33-.16m12.1-.17c.08.08.33.08.16.33-.17-.08-.5-.25-.17-.33m-3 0c.33.08.33.08.5.17-.34-.1-.26 0-.5-.17m-1.42 0c.5 0 .9 0 1.25.17-1.17.08-1 .33-1.25-.17m-5.1 0h.35l-.17.17v.16c-.08-.16 0 0-.17-.33m9-.17c.33.1.33.1.5.17h-.34c-.25.42 0 .17-.5.33-.08.1-1.17-.16-1.25-.33.6 0 1.26.08 1.6-.17m-5.67 0h.33l-.17.17v.17c-.1-.17 0 0-.17-.34m-1.6 0h1.26v.34h-.67c-.17-.1-.42-.25-.6-.34m-5.24 0c-.1.34.08.25-.5.34v-.17c.33-.08.33 0 .5-.17m14.4-.16c.34.08.34.08.5.16h-.32c-.25.6-.42.67-1.1.92v-.33c.43-.1.43-.1.68-.17v-.17c-.5 0-.83 0-1.08-.16.58-.1 1.08-.1 1.33-.25m-9.82 0h.33l-.16.16v.17c-.16-.17-.08-.08-.16-.33m-2.6 0h.35v.16c-.34-.08-.17 0-.34-.16m12.9-.17h.34v.17c-.25-.17-.16-.1-.33-.17m-12.4 0c.33.08.33.08.5.17h-.34l-.17.16v-.33zm-4.76-.33c.75 0 2.25.16 2.84.5-1.42.08-2.25.5-3.34-.34.34-.08.34-.08.5-.16m19.42-.25h.33c-.26.4-.5.66-.67 1.08-.6.08-1.17.25-1.75.33v-.33c.33-.08 1.83-.83 2.08-1.08m.58-.17c.17.17.1.08.17.33h-.16V86zm-22.08-.33c.75 0 1.5.16 1.92.5h-.17v.16c-1.24-.25-1.16.42-1.74-.66m24.83-.17h.33l-.17.17c-.17.16-.33.25-.5.33v-.33c.33-.1.17 0 .33-.17m-1.76 0h.34c-.17.42-.34.92-.67 1.25-.24.25-.5.25-1.24.33v-.16h.17c.83-.75 1.08-.34 1.4-1.42m.93-.17h.33c-.1.25-.26.67-.34.84-.17.16-.33.16-.67.16v-.16c.5-.17.5-.17.66-.84m2.58-.9c.1.15.25 0 .17.32h-.16c-.16.17-.33.25-.5.33v-.33c.25-.08.34-.17.5-.33m.6-.17h.32l-.17.17c-.17.08-.34.08-.17-.17m-22.6 0c.5 0 .85 0 1.1.17-.6 0-.92 0-1.1-.17m-3.74 0h3.5v.33h-.17c-.6-.25-2.42.25-3.34-.33m26.66-.17h.33v.17c-.34-.08-.17 0-.34-.17m-28.75 0h1.93v.34h-.17c-.33-.17-1.33-.1-1.75-.34m-1.57-.16c.58 0 1.25 0 1.58.16-.57 0-1.24.1-1.57-.16m-2.25 0c1.25.08 3.25.75 4 1.4-.6.1-1.25.18-1.75-.15.33-.1.16 0 .33-.17l-.17-.17c-.92 0-2.42-.5-2.42-.9m1.08-.18c.5 0 .92 0 1.25.17-.57 0-1 0-1.24-.17m-.75-.17c.43 0 .5 0 .68.17-.34 0-.42 0-.67-.17m-1-.16c.43 0 .68 0 .93.16-.5 0-.75 0-.92-.16m34.68.33c-.34-.08-.34-.08-.5-.17h.16l.34-.33v.5zm-35.6-.5c.43 0 .68 0 .85.17-.42 0-.6 0-.84-.17m-.5-.17c.33.1.33.1.5.17-.34-.08-.34-.08-.5-.17m-.92-.25c.4 0 .66 0 .9.17-.5 0-.65 0-.9-.17m-.67-.16c.43 0 .5 0 .68.16-.42 0-.5 0-.67-.16m38-.17c.5.25.43-.17.5.67h-.32V83c-.17-.17-.1-.08-.17-.5m-.5 0c.18.17.1.17.18.5h-.17v-.5zm-10.32-.17c.4 0 .5 0 .66.17-.5.08-1 .42-.66-.17m-.75 0c.33.1.33.1.5.17h-.34c-.34.17-.26.17-.5 0 .33-.08.16 0 .33-.17m-.67 0c.17.34.08.17 0 .5h-.17c0-.16.08-.33.16-.5m-.92 0c.17.1.34.1.5.17v.17c-.58-.1-.4.16-.5-.34m-1.75 0h.33v.17c-.25-.08-.17 0-.34-.17m-24.17 0c.5.1.75.1 1.08.34h-.66l-.4-.34zm-.34-.16h.33v.16c-.34-.08-.17 0-.34-.16M59.77 82h.33v.17c-.32-.1-.16 0-.32-.17m-1.1 0c.18.17.1.08.18.33h-.17V82zm-31.5 0h.35v.17c-.34-.1-.17 0-.34-.17m32.16-.17c.08.1.33.1.17.34-.17-.1-.5-.34-.17-.34m-1.17 0c.24.25.16.1.33.5-.5 0-.5.17-.67 0l-.17-.16c.16-.1.33-.17.5-.34m-3.34 0c.5 0 .83 0 1.08.17-.5 0-.83 0-1.08-.17m-28.25 0c.34.1.34.1.5.17-.32-.08-.24-.08-.5-.17m31.93-.16h.33v.16c-.33-.08-.17-.08-.33-.16m-13.17 0c.5.16.33-.17.5.33l-.17.17c-.5-.34-.26-.1-.34-.5m-19.25 0c.34.08.34.08.5.16-.32-.08-.32-.08-.5-.16m43.1-.17c.16.17.08.17.16.5h-.33v-.17c.16-.16.08-.08.16-.33m-1.1 0c.1.17.26 0 .18.33h-.17c-.16.25-.32.5-.5.67-.16-.08-.4-.25-.5-.33h.18c.16-.17.58-.25.83-.67m-39 0h.34v.17c-.33-.17-.16-.1-.33-.17m18.18-.17c.4.25.08-.08.33.34-.07.16-.24.4-.32.5V82c-.1-.25 0-.17 0-.67m-.5 0c.16.17.08.17.16.5-.33.17-.58.34-.83.5.18-.5.43-.58.68-1m-.84 0c.17.17.1.1.17.34h-.16v-.34zm-20.66 0c.25.1.58.1.83.17v.17h-.5l-.32-.34zm21.16-.58c.17.17.1.08.17.33h-.16v-.33zm-.33 0c.18.17.34.42.5.67h-.32v-.1c-.17-.24-.1-.15-.17-.57m3.68-.17c.16.17.08.17.16.5h-.33v-.16c.1-.17 0 0 .18-.34m15.08-.33c.17.17.08.08.17.33h-.17v-.33zm-1.42 0c.42.17.34.17.67.5h-.16c-1.08 1-2.33.75-3.66 1.42v-.34c.16-.08.33-.08.5-.16.75-.5 1.9-.34 2.4-1.1.18-.15.1 0 .26-.32m1.92-.17c.42.25.08-.08.33.34h-.17c-.17.16-.1.08-.34.16v-.16c.08-.17.08-.1.16-.34m4.92-.16c.25.33.25.75.16.9-.16.5-.25.68-.66.85l-.17.16v-.5c.26-.4.43-1.08.68-1.4m-21.42 0c.25.32.08.4 0 .9h-.17c.08-.5.08-.66.16-.9m-26.42 0h.34v.15c-.34-.08-.17-.08-.34-.16m28-.17c.17.08.34.08.5.17v.16c-.75.1-.66.25-1.4.34v-.17h.15c.24-.17.58-.33.74-.5m-2.58 1.92c.08-.75-.17-.67.17-.84.16-.25.33-.75.5-1.08v1.08c-.25.17-.34.42-.5.67.4.08.16-.17.33.17h-.5zm-1.08-1.92c-.1.33.16.25-.34.33v-.16c.34-.17.17-.1.34-.17m-21.92 0c1.58.42 2.83 1.08 4 .67v.33l-.17.17c-.6-.1-1.17-.25-1.76-.34v.17h.34c.33.33.83.42 1.4.5v.17h-.65c-1.25-1-2.5-.1-3.67-.5-.67-.17-1.25-.42-1.58-.92h.33c.34.17.5-.25 1.1-.17.66.1 1.33.67 2.08.92v-.17c-.42-.25-1.1-.5-1.42-.83m45.92-.17c.16.17.08.1.16.34h-.16v-.34zm-5.42 0c.17.17.08.1.17.34h-.17v-.34zm-15.58 0c.16.34.08.17 0 .5h-.17c0-.16.1-.33.18-.5m-5.25 0h.33v.17c-.33-.17-.17-.08-.33-.17m-22.6 0c.18.1.35.1.5.17v.17c-.4-.17-.32-.1-.5-.34m44.85-.4v.5c-.34-.1-.34-.1-.5-.18.33-.08.16 0 .33-.17-.32-.08-.16 0-.32-.16h.5zm-41.75 0h.33c-.17.32 0 .24-.33 0m-3.67 0h.33v.15c-.26-.08-.17 0-.34-.16M67.28 79c.16.17.16.33.16.67h-.33v-.34c.18-.16.1 0 .18-.33m-12.25 0v.33c-.42.1-.84.1-1.25.17v.17h.9c.5-.42.76-.1.35-.67m-8.92 0h.34l-.16.33c-.25.1-.34.1-.67.17v-.17c.34-.08.26 0 .5-.33m-25.07 0h.33v.17c-.25-.1-.17 0-.33-.17m50.83-.17c.17.17.08.1.17.34h-.17v-.34zm-3.92 0h.34V79c-.25-.08-.1 0-.34-.17m-43.4 0c.15.1.32.1.5.17v.17c-.43-.1-.26 0-.5-.34m43.82-.16h.33v.16c-.34-.08-.17 0-.34-.16m.83-.17c.08.08.33.08.16.33-.17-.08-.5-.33-.17-.33m-1.42 0c.16.17.08.08.16.33h-.16v-.33zm-47.42 0c.17.08.33.08.5.17v.16c-.42-.16-.25-.08-.5-.33m51.83-.17c.16.17.08.17.16.5h-.33v-.16c.08-.17 0-.1.16-.34m-3.67 0h.33v.17c-.33-.08-.17 0-.33-.17m-41.92 0h.34v.17c-.25-.08-.08 0-.33-.17m-6.66 0h.34v.17c-.25-.08-.1 0-.34-.17m49.6-.33c.15.17.07.08.15.33h-.17V78zm-43.6 0h.34v.17c-.34-.17-.17-.1-.34-.17m-3.83 0c1.18 0 2.26.42 2.43.92l-.17.16c-.67-.33-1.75-.58-2.25-1.08m-2.66 0c.17.08.34.08.5.17v.16c-.4-.16-.25-.08-.5-.33m49.92-.42c.17.17.08.1.17.34h-.17v-.34zm-43.42 0h.34v.17c-.34-.08-.17 0-.34-.17m44.84-.5h.33v.17c-.24-.08-.16 0-.32-.17m3-.33c.25.33.08.42 0 .92.4.08.25-.17.33.33-.5 0-.9 1-1.57 1.42v-.6c.4-.15.4-.32.66-.5-.17-.24-.17-.15-.34-.5.5-.32.75-.5.92-1.07m-17.34-.17c-.16.1-.4.25-.5.34.25-.1 1-.17.5-.34m18.75-.33c.16.17.08.08.16.33h-.17v-.33zm-3 0c.4.25.08-.08.33.33h-.17c-.25.17-.5.25-.92.34v-.17h.17c.26-.17.43-.33.6-.5m2.4-.17c.18.17.1.1.18.34h-.17v-.34zm-2.07 0h.33v.17c-.25-.17-.17-.08-.33-.17m3-.25c.16.17.08.17.16.5h-.17v-.5zm-17-.66c-.5.58-.6.25-1.25.66-.17.17-.25.67-.34.92h.17c.6-.42 2-.58 1.43-1.58m17.5-1.25c.16.5-.34 1.16-.5 1.75l-.17-.17-.17-.17c.4-.33.58-.9.83-1.4m.33-.5c.17.15.08.07.17.32h-.17v-.33zm-14.83-.18c-.6.58-1.17 1.17-1.75 1.75h.5c.58-.67 1.66-.92 1.25-1.75M78.7 72c.33.42.24.58.16 1.08h-.17c-.1-.66-.1-.5 0-1.08m-15.84 0c0 .67-.17.83-.33 1.25h.33v-.33c.17-.25.25-.5.33-.92h-.34zm16-.33c.17.16.08.08.17.33h-.17v-.33zm-12.08 0h.33v.16c-.32-.08-.16 0-.32-.16m-54.84-.17c.34.25.67.33.17.5v-.17c-.16-.16-.07-.08-.16-.33m67.25-1.08c.16.16.08.08.16.33h-.17v-.33zm-68.34 0c.42.25.5.33.67.9h-.17l-.17-.15c-.17-.34-.17-.34-.34-.75m69-.17c.17.17.08.17.17.5h-.17v-.5zm1.08-.33c.17.25.25.5.34.9h-.5v-.15c.16-.25.08-.34.16-.75m-70.9-.5c.4.25.5.33.65.83h-.17l-.17-.17c-.17-.33-.25-.33-.33-.66M9.86 69c.17.17.08.08.17.33h-.17V69zm71.92-.5c.25.33.08.5 0 .92-.6-.25 0-.17-.67 0v-.34c.26-.16.5-.33.68-.58m.58-.67c.17.17.08.1.17.34h-.17v-.34zm-11.92-.16c-.33.58-.33.5-.5 1.25h.17l.18-.17c.08-.42.25-.92.16-1.08m1.42-.42c.08.08.33.08.17.33-.25 0-.6-.25-.17-.33m10.83-.17h.33v.17c-.34-.08-.17 0-.34-.17m-73.1 0c.18.17.1.1.18.34H9.6v-.34zm74.18-.33c.25.25-.1.58-.34.92V67c.25-.17.1-.08.34-.25m-9.34-2.08V65l.17-.17h.18c-.17-.16 0-.08-.34-.16m-31-.75h.34v.16c-.25-.08-.17 0-.34-.16m6.84-3.25h.33v.16c-.24-.16-.16-.08-.32-.16m-4.6-3h.35c-.17.25 0 .16-.34 0m-7-.17h2.08v.33h-.34c-.16-.16-.16-.08-.5-.16v.16c.42.17.25.1.5.34h-.33c-.32-.25-1-.42-1.4-.67m19.66-.17c-.58.5-5.17 2.5-5.92 2.67-.58.08-.08-.42-.66-.33-1.6.16-3.34 1.66-4.75 2.25-1.25.5-3.25-.17-4.42.5.34.08.18 0 .34.16-1.5 0-2.5.34-4.16.34v.16h.33c.26.42.34.34 1.1.34.4.25.9.08 1.4 0 .1.4.1.4.18.66.75 0 1.66 0 2.08.34-.33.08-.33 0-.5.16 1.75 0 2.58-.4 4.92 0 .4.1 1.25.67 1.9.34.26-.25.5-.5.68-.67 0 .58-.42.42.17.67 1.25-1 2.58-1.84 3.5-3.17-.42-.08-.17.17-.34-.17 1.74-.4 2.9-3.08 4.58-4.16-.25-.1-.17 0-.42-.1m-11.92 0c.34.1.34 0 .5.18-.33-.08-.33-.08-.5-.17m-8.58 0h.33v.17c-.34-.17-.17-.08-.34-.17m18.58-.25c-.33.42-.9.6-1.25 1.1h.83c.33-.5.58-.6.4-1.1m.5-.16l-.15.33c.33-.17.16-.33.16-.33m-17.83 0h.34v.16c-.33-.08-.16 0-.33-.16m8.18-.17h1.25v.33h-.17c-.42-.25-.58-.16-1.08.17v-.5zm5.08-.5c.17.17.08.17.17.5h-.34v-.17c.16-.16.08 0 .16-.33m.58-.17c.17.17.1.1.17.34h-.16v-.34zm5.75-.33c-.17.17-.34.25-.5.33v.17h.5c.4-.33.08-.25.5 0-.17-.5 0-.33-.5-.5m-17.17 0h.33c-.08.17-.25.33-.33.5-.42-.08-.84.08-1.25-.17h.33c.26-.16.76-.25.93-.33m-6.17 0h.33v.17c-.26-.17-.1-.1-.34-.17m14.25-.17c.1.1.34.1.18.34-.25-.1-.6-.34-.17-.34m-4.4 2.6c-1.5 0-2.26-.1-3.5 0v-.68h.33c.4-.17 1.4.17 2.08 0 1.26-.33 2.34-1.33 3.5-1.92.43.84 1.1.17 1.76.5l-.17.17c-1.42.42-3.6.42-4 1.92m14-2.75c.33.16.16.33.33 0h-.34zm-4.92 0c.16.16.08.16.16.5h-.33v-.17c.18-.17.1-.08.18-.33m-16.1 1c.85-.1 1.43-.25 2.1-.17-.25.25-.42.58-.67.83-.32-.5-.24-.25-.9-.16 0-.34.16-.1 0-.34-.26.25-.34.25-.67.34-.5-.5-.92-.92-1.42-1.42.43-.17 1.1-.17 1.76-.17v.34c-.17.25-.08.33-.17.75M55.35 55c.25.25.08.08 0 .33 0 .1-.17.34-.33.17.08-.08.25-.33.33-.5m-19.58 0h.33v.17c-.32-.1-.16 0-.32-.17m47.58-.17c.25.34.33.25.17.5v.17h-.17v-.67zm-31.67 0c.24.25.08.1 0 .34-.26.4-.5.58-1.1.66v-.33c.6-.08.76-.25 1.1-.67m31.33-.16c.16.33-.1.58 0 1.25h-.34c0-.75.08-.84.33-1.25m-1.75 0V55h.16c-.08-.25 0-.17-.16-.33m-26.75 0c.4.25.16 0 .33.5h-.17V55c-.17-.17-.1 0-.17-.33m-.42 0c.18.16.1.08.18.33h-.17v-.33zm0-.34h.34v.17c-.25-.08-.16 0-.33-.17m1.1-.16c.24.25.08.08 0 .33 0 .08-.17.33-.34.17.08-.17.25-.34.33-.5m.66-.34c.17.34.08.6-.33.92.08-.67.16-.58.33-.92m.92-.25c.16.17.08.1.16.34h-.16v-.34zm24-.66c.08.58 0 2.33.33 2.83.1-1.17.43-2.42-.32-2.83m-23-.17c.16.17.08.08.16.33h-.16v-.33zm28.08-.17c.17.17.08.17.17.5h-.17v-.5zm-4.42 0c.17.17.1.1.17.34h-.16v-.34zm-.83-.9V52h.18c-.1-.25-.1-.17-.17-.33m-21.74 0h.33c-.1.33-.26.58-.34.9-.58-.07-.33-.07-.83.18v-.5c.5-.17.58-.25.83-.58m22.08-.5v.33h.17c-.07-.25 0-.17-.16-.33m4.6 3.16c0-1.25-.35-2.58 0-3.66h.15V51c-.67.92.16 2.75.5 3.33h-.67zm0-4.25c.15.17.07.1.15.34h-.17v-.34zm0-.5c.15.17.07.1.15.34h-.17v-.34zm-3.93-.5c-.16.67-.32 1.25-.5 1.92h.34c.17-.83.67-1.42.17-1.92M85.54 48h.33v1.08h-.17c0-.5-.1-.75-.17-1.08m-2-.33c.16.16.08.08.16.33h-.17v-.33zm2.16-.5c.16.16.08.16.16.5h-.17v-.5zm2.24-4.25h.34c0 .5.58 1.58.9 2.25.68 1.5.68 4.08 1.1 5.58.83 3.25-1.5 8.83-2.84 10.83-.75 1.17-1.16 3.1-2.4 3.67-.18-.5-.26 0-.93.17v-.17h.18c.66-1.08 1.66-1.75 2.25-2.83 1.75-2.84 3.9-8.92 2.83-13.84-.5-1.83-.92-3.75-1.42-5.66m-86.66-1c.16.16.08.08.16.33h-.16v-.33zm86.5-.92c.16.17.08.08.16.33h-.16V41zm-.5 0c.58.42.66.92.66 1.92h-.16c-.1-.84-.42-1.1-.5-1.92m-.25-.33c.16.16.08.08.16.33h-.17v-.33zm-2.75 0c.5.66 2.16 5.08 1.4 6.33-.07-2.58-1.15-4.17-1.4-6.33m3.33-.17c.18.25.34.17 0 .33v-.33zm-.9-.92c.4.42.5.5.33 1.1h-.17c0-.35-.08-.68-.17-1.1m-85.1-.33c.43.25.18 0 .34.5h-.16c-.1-.17-.17-.33-.17-.5m85.1-.67c.33.34.5.84.66 1.25h-.33v-.33c-.17-.33-.25-.58-.34-.92m-3.17 0h.33c0 1 .25 1.17.33 2.1h-.17c0-.68-.25-1.5-.5-2.1m2.33-1.08c.17.17.08.08.17.33h-.17v-.33zm-.17-.33c.16.16.08.08.16.33h-.17v-.33zm-.6 0c.18.16.1.08.18.33h-.17v-.33zm-82.66 0h.34l-.17.16v.17c-.07-.17 0 0-.16-.33m83.42-.5c.58.4.5.83.92 1.58h-.33v-.33c-.42-.42-.5-.67-.6-1.25m-1.07-2.34v.34h.16c-.08-.25 0-.17-.16-.34m-1.75-.5v.34h.16c-.1-.34 0-.17-.17-.34m.33-1.75v.34c.33.25.83.75 1.08 1.25h.17v-.5c-.16-.25-.24-.5-.32-.92-.84 0-.42.17-.92-.17M75.2 30c.08.17.08.33.16.5h.17c-.17-.42-.1-.25-.34-.5m-29.1-2.5c.18.17.1.08.18.33h-.17v-.33zm-.4-.5c.16.17.08.08.16.33h-.17V27zm-.17-.33c.16.16.08.08.16.33h-.17v-.33zm27.66-.6c.16.18.08.1.16.35h-.17v-.34zm-19.1-.15c.43.58-.16.58-.66.16.42 0 .5 0 .67-.16m-7 0c.18.16.1.16.18.5h-.17v-.5zm25.93-.34c.16.17.08.1.16.34h-.17v-.34zm3.66-.33c.16.17.08.08.16.33h-.17v-.33zm-3.84 0c.17.17.08.08.17.33h-.17v-.33zM44.7 23.83c.24.25.24.34.33.92h-.17v-.33c-.17-.25-.08-.25-.17-.6m24.83-.32c.16.17.08.08.16.33h-.17v-.33zm-25 0c.16.17.08.08.16.33h-.17v-.33zm24.66-.17h.33v.17c-.25-.08-.17 0-.34-.17m8.24-.16c.17.16.1.08.17.33h-.16v-.33zm-2.83-.6c.34 1.18 2.1 4.43 3 5.1-.16-.5-.32-1.34-.5-1.75h.5c.1.25 0 .16.18.16.08-.16.25-.4.33-.5.18.42.1.25.34.5v-.33c-1-.58-2.66-2.08-3.83-3.17m-5.07-.33c.16.17.08.08.16.33h-.17v-.33zm-22.75 0c.33.08.33.08.5.17-.34 0-.34 0-.5-.17m28-.33c.16.16.08.08.16.33h-.16v-.33zm1.25-.17c.25.25.16.08.33.5h-.17v-.17c-.17-.16-.1 0-.17-.33m.33-.17c.25.25.17.1.33.5h-.17v-.16c-.1-.17 0-.1-.17-.34M46.28 58.33c.16-.58-.1-.25.33-.5.34.17.18.1.68 0V58c-.34.17-.34.08-.5.5h.16c1.25-.75 3.42-.33 4.6-1.25h-.68v-.5c.5-.17.67-.33 1.08-.5v-.17h-.33c-.5.5-1.82 1.34-2.24 1.42-.33-.17-.17-.08-.5 0v-.67l.17-.16c2.08-.25 3.4-1.34 5.08-1.92v.17c-.4.25-.5.5-1.07.66-.17.17-.17.1-.5.17-.1.33-.1.33-.17.5-.08-.33 0-.17-.17-.33v.9h.16l-.17.18c.16.17.08.08.33.17 2-1.5 6.66-1.92 7.16-4.75.08-.1-.34-.67-.17-.92.33-.42.4 0 .5-.92h.66c.16-.5.24-.5.66-.66.08-1.75.5-3.6.92-5.25.5-2.42-.92-7.1-1.6-9.25-.48-1.6-.48-3.1-1.32-4.42-.9-1.5-2.25-2-3.5-3.17.42-.25.17 0 .34-.5-.67-.4-1.1-1.25-1.76-1.58-.24-.08-.9 0-1.4-.33-.1-.17-.1-.34-.18-.5-.25.08-.5.08-.67.16-.1-.25-.1-.5-.17-.66.4.08.16.16.5 0l-.34-.34c-.34.1-.17.25-.34 0-1.08-.58-2.17-1.08-3.17-1.4h-.92c.08-.35-.5-.85-1.1-.85-.4-.08-.32.25-.65.34l.16-.17c.33-.17-.34-.17-.34-.17-.17-.16-.17-.08-.5-.16l-.17.25c.5-.1.24-.25.5.16-.5.34 1.24 4.17 1.9 4.75-.16.34-.07.17 0 .67h-.32c-.58-1.33-2.08-2.67-2.67-4.42l-.24.42c-.08-1.25-.67-1.75-1.92-1.75l-.16.17v.33c1.4.5 2.66 2.25 3 3.83h-.17l-.32-.33v.17c.33.33.4.5.5 1.08h-.17v-.33c-.5-.42-.5-.92-.9-1.42-1.17-1.67-3.42-3.5-6.17-3.5-.6.5-1.42.58-2.1 1.08-1.32.84-2.74 2-4 2.84-.82.5-1.9.33-2.82.9-.74.43-1.74 1.76-2.24 2.43-.5.5-.92.92-1.42 1.42v2.83c.17.17.1.17.17.5h-.16v-.17c-.4-.66-.25-1.75-.66-2.25l-.17.17c-.66 1.17-.24 1.42-.66 2.67-.83 2-1.92 3.66-1.58 5.25.42 1.83-.42 3.08 0 4.4.08.26.58 1.26.67 1.6V47c.08.17.5.92.66 1.25.16.08.33.08.5.17.24.33-.26.4 0 .83.4.58 1.33.92 1.74 1.58v.5c.17.34 1.92 1.17 1.25 1.6.66.24 1.24.5 1.9.65 1.5.92 3.76 3.1 5.43 2.25.4.25 1 .84 1.4 1.1.85.32 1.35-.1 2.1.15l-.17.17c-.17.08-.58.25-.67.33h.33c1.66 1.5 6.83 1 8.75.75M40.6 21.58v.34c.34-.17.26-.1 0-.34m4.26-.16c.17.16.08.08.33.16-.17-.16 0-.08-.34-.16m31.17-.34c.16.17.08.1.16.34h-.17v-.34zm-.17-.75c.33.25.33.25.5.67-.33 0-.08-.17-.33 0-.34-.33-.25-.25-.17-.67m-6.33-.16l.33.33-.33-.33zM73.6 20c.26.25.34.33.5.67h-.32v-.17c-.17-.17-.17-.17-.17-.5m-6.32 0c.4.92.83 1.83 1.25 2.83h.16c0-.5 0-.83.16-1.08v.17c.08.16.25.66.33.9.08-.24 0-.15.16-.15.17.16.08.08.17.33-.5.25-.58.08-.67.5.67.67 1.42 2.25 1.75 3.17.1.4.1.83.18 1.25.83 1.33 1.42 2.58 2.08 3.83.58-.08.42-.08.92 0 .67 1.33 1.33 2.75 1.92 4.17h.16v-.67c.34-.42-.4-2.92-.66-4.17.4.1.16.17.5 0-.25-.16-.17-.16-.5-.33-.1.33 0 .17-.17.33-.08-.58-.08-.33-.33-.66.4-.25.08.08.33-.34-.92-.25-1.25-1.08-1.25-2.25h.17c.25.42.08.25.66.34V28c-1.65-1.83-2.32-5.25-4.9-6.17l.16.17c.34.17-.33.17-.33.17-.17-.84-.75-1.25-1.42-1.6v.18c.35.25.43.5.5 1.08h-.07c-.34-.75-.75-1.4-1.25-1.83m-54.67-.17c.18.17.1.1.18.34h-.17v-.34zm60.84-.16c.17.16.1.08.17.33h-.16v-.33zm1.17-.34h.34v.17c-.25-.17-.16-.08-.33-.17m-.5 0c1.26.67 1.34 1.17 1.93 2.42h-.34c-.17-.17-.1-.08-.34-.17-.25-1-.92-1.4-1.25-2.25m-6.16-.58h.34v.17c-.25-.1-.1 0-.34-.17m-.5-.83h.34v.16c-.25-.16-.17-.08-.34-.16m1.1-.17c.15.17.07.17.15.5h-.17v-.5zm4.5-.25c.5.25.57.08.65.5-.1.08-.26 0-.17.33h.16c.24.25.33.17.5.5l-.17.17-.34-.17c-.26-.33-.5-.66-.67-1.33m-1.75-.17h.33v.34h-.32v-.34zm-4 0c.16.17.08.17.16.5h-.16v-.5zm5.4-.33c.26.08.68.25.85.33-.6 0-.6.1-.84-.33m-4.34 0c.17.25.33.17 0 .33V17zm2.75-.17h.34V17c-.25-.08-.16 0-.33-.17m-10.66-.16c.34.58.75 1 1.1 1.58h.32c-.25-.67-.83-1.25-1.42-1.58m10.34-.34h.33v.17c-.24-.08-.16-.08-.32-.17m4.16-.16c.42.08.84.25 1.25.33v.33h-.34c-.33-.25-.67-.25-.92-.66m-2.08.16c-.08.34-.08.34-.17.5-.26-.4-.42-.33-.67-.66h.33c.17.08.17.08.5.16m-14.17-.16v.66c.33.17.33.25.9.34V17c-.4-.33-.5-.58-.9-.83M57.43 16c.17.17.34.25.5.33-.16-.33-.08-.25-.5-.33m-.66-.25c.16.33.33.58.5.92h.16c-.16-.5-.25-.6-.66-.92m-40.5 0c-.34.67-.5 1-.5 2.08h.16c.42-.66 1.1-.9 1.42-1.75-.33-.08-.67-.16-1.08-.33m55.4-.17c.35.1.35.1.5.17-.4 0-.32 0-.5-.17m-54.82-.16l-.17.16c-.34.17.33.17.33.17-.17-.25-.1-.17-.17-.33m47.08-.34c.42.25.17 0 .34.5h-.17c-.07-.16-.07-.33-.16-.5m10.5-.33c.17.17.1.08.17.33h-.16v-.33zm-3.83-.17h.34v.17c-.33-.08-.16-.08-.33-.17m-6 0c.18.17.1.1.18.34h-.17v-.34zm-.82-.16c.16.08.33.08.5.16v.17c-.6-.08-.5.08-.5-.33m-7 0c.08.25.08.5.16.66-.58 0-.25-.33-.5.17h.92c.17-.08.58-.25.67-.33-.6-.1-.92-.25-1.25-.5m8.58-.17c.17.08.33.08.5.17v.16c-.42-.16-.25-.08-.5-.33m-2.08 0h.33v.17c-.32-.17-.16-.1-.32-.17m10.33-.42c.34.1.34 0 .5.17-.4.25-.24.08-.5-.17m-10.74 0h.33c-.17.34 0 .25-.34 0m-7.83 0h.33V14c-.33-.08-.17 0-.33-.17m14.5-.33c.16.08.33.08.5.17v.16h-.5v-.33zm-3.5 0c.33.08.33.08.5.17-.34-.1-.25 0-.5-.17m8.4.5v-.67h.18v.34l.34.33h-.5zm-5.9-.67c.4.17.25.1.5.34l.16.16h-.5c-.1-.16-.17-.33-.17-.5M76.7 13c.16.17.08.08.16.33h-.17V13zm-4.84-.17h.33V13c-.34-.17-.17-.08-.34-.17m-3 0h.33V13c-.34-.17-.17-.08-.34-.17m-5.42 0c.75.34 1.1.67 1.75 1.1v.15h-.34c-.58-.58-1.42-.66-1.42-1.25m-.58 0h.33V13c-.26-.17-.1-.08-.34-.17m5.25-.16c.18.16.1.08.18.33h-.17v-.33zM19.3 12.5v.33l.16-.16h.17c-.16-.17 0-.1-.32-.17m52.58-.42c.58.17 1.08.67 1.42 1.1l.17.15h-.34c-.4-.5-.9-.66-1.24-1.25m-1.75 0h.68c.25.42-.08.1.33.34v.16h-.5c-.16-.08-.32-.33-.5-.5m-4.24-.16h.33v.16c-.26-.08-.17 0-.34-.16m-4.33 0h.5c.25.4.33.25.5.9h-.17c-.33-.32-.25-.32-.92-.32v-.58h.1zm5.4-.17c.6.17.6.33 1.1.5v.17h-.67c-.25-.25-.33-.25-.42-.67m-.33 0c.18.17.1.17.18.5 1.08.5 2.08 1.92 2.67 3h-.34C68.6 14 67.2 13 66.3 12.08c.4-.16.08.1.33-.33m-.74-.33c.17.16.08.08.17.33h-.17v-.33zm-46.08 0c.16.16.08.08.16.33h-.16v-.33zm49.4-.17h.35v.17c-.25-.1-.17 0-.34-.17m-.34-.33c.17.25.33.16 0 .33v-.33zm-3-.17c.42.17.67.33 1.08.5l-.16.17v.16c-.42-.16-.5-.16-.67-.5-.16-.16-.07-.08-.24-.33m-1.42 0c.5 0 .84 0 1.1.17-.5 0-.85 0-1.1-.17m6.34-.25h.33v.17c-.24-.1-.16 0-.32-.17m-8.6 0c.43.08.76.25 1.1.5h-.92c-.08-.08-.08-.25-.17-.5m-.34-.17c.17.17.08.1.17.34h-.17v-.34zm-15.92 0c.5 0 .84 0 1.1.17-.6 0-.85 0-1.1-.17m17.5-.33h.34v.17c-.34-.1-.17 0-.34-.17m0-.5c.6.17.25-.08.5.33l-.16-.16c-.42-.1-.17.16-.34-.17m-3 0c.75.33.25.25 1.1.5v.17h-1.26V10c.08-.17.08-.17.16-.5m.34-.17h.33v.17c-.24-.17-.16-.08-.32-.17m2.66-.16c.42 0 .5 0 .67.16-.4-.08-.5-.08-.66-.16m-17.75 0c-.6.4-1.92.5-2.84.5V10c.92.08 1.42.75 2.08.83.5.1 1.67-.4 2.42-.16.25.08 1.17.4.67.66 1.25.5 2.5.5 3.67 1.1 1.66.74 2.66 1.9 4.4 2.4-.07-.66.18-.75.18-1.08-.25-.42-.5-.33-1.25-.33v-.17c.42 0 .67 0 .83-.17-.5-.16-1.58-.33-1.75-.5.26-.25.18-.08.35-.5-.42-.25-.1.1-.34-.33.35-.08.18 0 .35-.17-1.6-.5-3.1-1.9-4.75-2.4-1-.43-3.17.15-4 0m16.83-.43c.33.17.58.33.9.5v.17h-.32s-1.07-.1-1.4-.34l-.17-.16c.4.08.75 0 1-.17m.33-.17h.33c-.17.34 0 .25-.34 0m-.67 0h.33v.17c-.25-.08-.17 0-.34-.17m.33-.16h.33v.16c-.25-.08-.17 0-.33-.16m-25.17-.17c-.17.08-.42.25-.5.33h.67c-.17-.25-.1-.16-.17-.33m30.08-.17c1.17.67 2 1.6 3.34 2.1-.1.4-.42.32-.17.5.34.4.93.74 1.6.9v.17c-.76.17 0 .17-.67.33-.75-1.9-3.42-2.16-4.1-4m-42 0c-.32.42-.5.42-.65 1.1h.16V9c.17-.25.67-.75.5-.92m32.34-.16h.33v.16c-.24-.08-.07 0-.32-.16m10.75-.17h.33v.17c-.33-.1-.17-.1-.33-.17M40.6 7.58c-.32.34-.5.34-1.24.34-.5-.34-1.17-.1-1.92 0v.16c.17.17.17.34.17.67.6-.17 1.5.08 1.76-.17.5-.4.25-.5 1.58-.5.17-.08.5-.16.92-.33v-.17H40.6zm27.34-.16c.17.08.34.08.5.16v.17c-.33-.17-.25-.08-.5-.33m-9.25-.25c.16.25.33.16 0 .33v-.33zm-2.84 0c.42.25.17 0 .33.5h-.17V7.5c-.1-.08 0 0-.17-.33m4.08-.34v.5c.75.1.67-.16.92.17.83.42.75.5 1.75.67-.16.16-.07.08-.32.16-.17.1-1.58.34-2.08 0 .66 0 .58.1.9-.33-.65-.25-1.24-.58-1.57-1.25h.42v.08zm6.84-.33c.16.08.33.08.5.17v.16c-.42-.16-.25-.08-.5-.33m-10.5-.17h.33v.17c-.32-.08-.16 0-.32-.17m7.5-.16c.25.25.08.16.5.33v-.17c-.17-.08-.34-.08-.5-.16m-8.1 0c.43.25.1-.1.35.33h-.17c-.17.17-.08.08-.33.17V6.5c.16-.17.08-.08.16-.33m-.84 0c.17.16.08.08.17.33h-.17v-.33zm6.25-.34c.1.1.34.1.18.34-.17-.1-.5-.34-.17-.34m4.1-.4h.33v.15c-.34-.08-.17 0-.34-.16m-2.1 0c.76.33 1.6.75 2.68 1.08l-.34.33c.75.1 1.5.5 1.92.92h-.17c-.17.17-.17.08-.5.17-.26-.5-1.84-1.1-2.42-1.25v.16c.5.5.9 1.25 1.4 1.75h-.15c-.25.25-.1.17-.5.34C64.7 7 61.6 8 61.36 7.17c.17-.17.33-.34.5-.5.5.16 1.17.16 1.75 0 .1-.42.1-.42.18-.67h-.34c-.4-.25-.66.08-1.08-.17l-.17-.16c.33 0 .66-.1.9-.25M56.95 6c.1-.33.1-.33.17-.5.26.17.5.25.93.33v.34h-.5c-.25-.17-.25-.1-.6-.17m5.6-.75h.33v.17c-.25-.1-.17 0-.33-.17m-1.17 0h1.08v.17h-.33v.16c-.5-.08-.57-.08-.74-.33m-7.42-.17c.17.1.34.1.5.17v.17c-.33-.1-.25 0-.5-.34m4.75-.16c.9.25 1.16.08 2.08.5v.16h-.5c0 .1-1.34-.25-1.6-.66m-5.24 0h.34v.16c-.34-.08-.17 0-.34-.16m-.33-.17h.34v.17c-.33-.1-.16 0-.33-.17m7.18-.67c.5.25.9.67 1.4.92v.17h-.9V5c.33-.08.16 0 .33-.17-.9-.08-.9-.16-.82-.75m-1.25.5c.08-.33.08-.33.16-.5.24.25.08.17.5.34v.16c-.84.1-1.26.1-2.1 0-.16-.16-.32-.33-.5-.5 1.1.1 1.1.34 1.93.5m.58-.9h.34v.15c-.33-.08-.16 0-.33-.16m-.9 0h.33v.16c-.34-.08-.17 0-.34-.16m.5-.17h.33v.17c-.25-.1-.17 0-.34-.17m-2.1 0c.18.17.1.08.18.33h-.17V3.5zm-4.9 0c.33.08.33.08.5.17-.34 0-.26 0-.5-.17m-.34-.17h.33v.17c-.26-.08-.17 0-.34-.17m6.83-.16c.16.08.33.08.5.16v.17h-.5v-.33zm-7.5 0c.33.08.33.08.5.16-.34-.08-.34 0-.5-.16M58.35 3c.17.17.08.08.17.33h-.17V3zm-3.83-.17c.33.1.33.1.5.17-.42-.08-.34 0-.5-.17m-4.1 0c.35.1.35.1.5.17-.32-.08-.32 0-.5-.17m-.65 0c.33.1.33.1.5.17-.34-.08-.34 0-.5-.17m2.25-.33c.4 0 .5 0 .66.17-.34-.1-.42-.1-.67-.17m-5.6 0c.18.17.1.08.35.17-.17-.17-.1-.1-.34-.17m-.5-.17v.34c.25-.25.17-.1 0-.34m-8.25 0c.16.17.08.1.33.17-.17-.17-.1-.08-.34-.17m18.33-.16c.58.08 1.33.33 1.75.66.4.42.5.5.16.67l-.16.17c-.17-.42-.17-.25-.34-.5.34-.1.17 0 .34-.17-.75-.08-1.34-.42-1.75-.83m-3.25-.42h.33v.17c-.32-.1-.16 0-.32-.17m.66-.33h.34v.16c-.34-.08-.17 0-.34-.16m-.66-.17h.33v.17c-.32-.1-.16 0-.32-.17M35.03.17c.16.25.08.08.16.4h-.17v-.4zm-.84 0h.5l-.17.16.16.34h-.17c-.42.33-.5.25-1.25.16V.58c.5-.08.58-.08.9-.4m24 9.15c.1-.33.1-.33.18-.5.42.42.42.25 1.08.17-.08.42-.08.08 0 .5.6-.08.34-.08.92 0v.5c-.67-.17-.58-.25-1.42-.33-.08-.42.1-.25-.5-.34l-.16.17.16.17c.5.75.92.75 1.42 1.08.17.25.58.58.17.92.25.08.5.08.67.16.4.25.5.92.9 1.25.43.42 1 .1 1.26.67l.17.17c-.5-.1-.33-.17-.67 0h.17c.5.58 1.17 1.4 1.75 1.9.17-.07.33-.07.5-.15-.33 1.5 2.33 2.66 3.33 3l-.15.16V19c-.84-.16-.34.17-1.42-.33v.17c.16.16.08.08.16.33.74.33 2 1.33 2.66 1.08.33-.42-.25-.25.33-.5.74.67 1.4.83 2.08 1.25-.1-.17-.1-.33-.17-.5h.26c-.58-.67-2.33-1.17-3.33-1.92.75 0 1.17.17 2.08.5-.07-.25-.07-.33-.16-.66.6-.17.25.08.5-.34-.83-.5-1.5-1.75-1.9-2.08-.18.17-.1.08-.35.17v-.34c.58-.16-.1-.16.5-.33.33.5.9-.25 1.24.5l.17.17h-.32c-.33-.25-.25-.33-.5-.17h-.17c.34.33.76.25 1.1.5v.17c.4.4.5 1.16.83 1.58.4.42.9.5 1.25 1.08-.25.1-.17 0-.17.17.84 1.75 1.84 2.25 3 3.5.26-.17.18-.5.34-.17.5.34.84.75 1.42 1.1-.33-.5-.58-.85-.92-1.43.42-.08.34-.42.5-.17.5.5.42.83.5 1.58h.17c.18-.07 0-.4.18-.15.25.25.25.33.33.66h.18c-.34-1.32-1.34-2-1.75-3.15h.16l.33.33v-.16l.16-.17c-.42-.08-.17.17-.34-.17 0 0-1.5-3.58-3.17-3.83 0-.67.08-1 .5-1.25-.1.42-.1.08 0 .5.33-.08.16-.25.33 0 .9.25 4.25 2.17 4.58 3 .26.17-.07.08-.16.5h.5c.25-2.67-1.5-4.75-2.66-6.67h.33v.17c2.6 2.83 3.76 7.92 5.1 12.08 1.07 3.5 2.82 7.1 3.5 11-.76.1-.18-.16-.68.34-.16-1.84-1.08-3-1.75-4.42h-.16v.92c.42.5.76 1.9.92 2.66h-.16c-.1-.25-.17-.33-.34-.5v1.1c-.83 1.32.67 4.07.92 5.4.42 2.6-1.33 5.84-1.92 8.1-.25.9.25 1.32.34 2.07h-.17c-.1-.33 0-.17-.17-.33v.5c.4.4.08.9 0 1.9h-.17v-.15c-.92-1.42.42-3.84-.17-4.92-.17 1.17-1.26 2.25-1.1 3.33.18.75.34 2.25.68 3h.33s-.5 3.92-.5 4c-.4 2.25-.07 5.25-.32 6.84-.25 1.33-1 3.33-1.92 3.83v-.17c.5-.75-.08-1.4.17-2.25.16-.58.83-1.58 1.08-2.25.84-2.66 1-5.83 1.1-9.08-.34-.08-.17 0-.34-.17h-.33c-.17.92-1.17 3.25-1.92 3.67l-.16-.17c-.16 1.92-1 4-1.75 5.42-.76.08-.92.33-1.26.17-.08-.1 0-.92-.16-1.25-.25.4-.1.4-.67.5v.5c-.57.08-.57.16-1.07.33.08-.42.16-.17 0-.5l-.17.17c-.08.33-.08.58-.17.66-.5.25-.76 0-1.26.67.42-.08.17-.17.5 0-.25.17-1.5.5-1.75.67v.16c-.5.67-.34 1-.93 1.92-.16.33-.83.42-1.08.67v.66c-.34.1-.68.1-1.1.17v-.17c.6-.4.84-1.33 1.26-1.9-.5 0-.25-.18-.5 0-.25.24-.17.32-.5.5V69l-.33.17c-.25.4-.42.5-.5 1.08h.16c.16-.33.58-.67.66-.5h.17c-.34.67-.67 1.5-1.42 1.75.1-.5.18-.33 0-.67-.66 1.84-6.07 4.67-6.32 6.84.66-.1 1.4-.25 2.08-.34v.17h-.17c-1.42 1.33-3.42 1.67-5.76 2.08v-.16c.42-.25.67-.5.92-1.1l-.17-.15c-.34.08-.6.08-.92.16-.25 1.1-1.25 2.34-2.84 2.42v.67l-.33.33c-2.82-.33-5.9 2.08-9.66 2.25v-.17h.17c1.76-1.5 4.43-1.9 6.84-2.83.42-1.5.42-1.67 1.42-3.17l-.17-.16c-.34.16-.67.33-1.1.5v-.34c.34-.08.34-.08.5-.16l-.16-.17c-1.33.58-2.4.67-3.5.92-.08-.42.1-.25-.5-.34-.25.25-5.5.84-6.66.92-.25.33-.34.33-.5.67.33.25.33.33.66.5 1.1.75 3.42-.42 4.42-.67v.17c-.25.25-.5.5-.67.66h.16c.33-.33.67-.4 1.08-.16-.5.08-.75.16-.9.33.4.83-.35 1.58-1.26 1.75v-.5c.33-.08.16 0 .33-.17-.66.25-1.07.67-1.57 1.1v-.35c.16-.16.08-.16.16-.5h-.17c-.6.84-1.5.6-2.84.5 0-.58.24-.33-.34-.5V82c.33.08.17 0 .33.17h-.92c-.92-.5-3.17-.5-4.17-.5-.4 0-1-.6-1.24-.67-.25.08-.58.08-.92.17-2.25-.6-4.08-1.34-6.33-2.1.1-.15.1-.32.18-.5.75 0 .5.43.66-.32-.33-.17-.5-.25-.66-.5.33-.08.16 0 .33-.17-1.82-.33-3.32-1.16-4.9-1.75V76h.16c.33.42.58.58 1.25.67v.5c1.1.25 2.18 1.08 3.18.9v.5c-1.67 0-2.25-.74-3.67-.9V77c-.66-.33-1.32-.5-1.74-.67v.17c.5.33.67.83 1.08 1.42h-.66c-.1-.1-2.67-1.5-3.17-1.6v-.5c1 .18 1.93.68 2.68.93-.67-.83-1.5-.5-2.42-1.08-.83-.42-3-2.92-3.33-3.84h.16c.4.5.83.75 1.4 1.1v-.35c-3.57-2.33-5.82-6.25-9.5-8.58 0 .42 0 .5-.16.67v-.34c-.5-.4-.5-1-.9-1.58-1.68-2.42-3.1-5.42-4.18-8.42-.17-.75-.33-1.5-.5-2.25C1.1 51.68.44 51 .28 50.5c-.5-1.33-.25-6.17.16-7.33H.6c.18.58-.07.25.34.5-.08-.67-.33-1.1 0-1.6.1.35.1.6.17.85h.18c.08-2.1.9-3.6.9-5.25.18.08.35.08.5.16.35-3 2.5-5.25 2.85-8.08h.5c.66-1.25 1.33-2.17 1.75-3.17.33.1.16.25.33 0 .76-.75.76-1.33 1.26-2.08.5 0 2.25-2.75 2.67-3.5 0 0-.67-.08-.34-.17h.16c.08-.25.25-.5.33-.66l.16.16c.33.25-.08.17.33.34v-.34c.66-1.08 1.08-2.9 2.4-3.83.1.33.1.33.18.5v-.33c.83-1.1 2.66-4 3.66-4.6.17.1.34.1.5.18.6-.5.92-1.5 1.6-1.92h.5c.65-.5 1.24-1.5 1.9-1.9.25-.18 1.6-.35 1.6-.35.24-.16.15-.5.32-.66 1-.92 2.42-1.6 3.17-2.25.25.58.4 0 .66.33.5-.42 1.9-1.5 2.4-1.25.26.33.1.5.5.67.18-.17.1-.1.34-.17 0-.58-.25-.33.17-.67.68-.5 3.34-1.4 3.68-1.25v-.5c.83 0 1.42-.33 1.58-.66h-1.08c-.75-.75-2-.1-2.83-.5.4-.1.83-.1 1.25-.17V.33c.4.1.08.1.5 0L35.36 0c3.25 0 6 1.25 8.1 1.75 2.24.42 4.57-.25 6.32.42v.17c-1 0-2 .08-2.83.33v.17c1.08.08 1 .4 1.4.66l4 .5c-.07 1 .93 1.08 1.6 1.75 1.5 1.5 2 3.42 4.24 3.58" class="st0"/><path d="M104.2 44.5v9.25c.24.08.5.17.83.25.25.08.58.08.9.17s.6.08.93.08c.25 0 .58 0 .83 0 1.5 0 2.74-.5 3.74-1.58 1-1 1.5-2.34 1.5-4 0-1.84-.4-3.25-1.33-4.34-.82-1.08-2-1.66-3.4-1.66-.34 0-.67 0-.92.08-.34.08-.6.17-.84.25-.33.17-.66.33-1 .58-.5.34-.83.67-1.25.92zm0-3.25c.74-.5 1.5-.92 2.24-1.17s1.6-.4 2.42-.4c2.08 0 3.92.82 5.25 2.4 1.43 1.6 2.1 3.67 2.1 6.1 0 2.9-.84 5.15-2.42 6.74-1.6 1.58-3.84 2.4-6.67 2.4-.24 0-.4 0-.66 0s-.4 0-.66-.07c-.92-.08-1.84-.17-2.67-.42-.82-.16-1.66-.4-2.32-.75v-25h3.4v10.17zM126.6 53.67v-5c-1.4.5-2.66 1.08-3.74 1.66-1.08.6-1.58 1.42-1.58 2.42 0 .67.25 1.25.67 1.75.4.42 1 .67 1.75.67.5 0 1.08-.17 1.5-.42s.9-.58 1.4-1.08zm5.84.4v2.1c-.5.4-1 .66-1.33.83-.32.17-.66.33-1 .42-.16.08-.32.08-.4.08-.17 0-.34 0-.5 0-.76 0-1.34-.17-1.76-.42s-.66-.66-.83-1.33c-.74.58-1.5 1-2.24 1.25s-1.58.42-2.33.42c-1.25 0-2.25-.42-3-1.25s-1.17-1.84-1.17-2.92c0-1.5.5-2.67 1.58-3.33 1-.75 2.17-1.34 3.42-1.75.17-.1.33-.1.42-.17.16-.08.25-.08.4-.17l3-1.08v-.92c0-1-.24-1.83-.74-2.25-.5-.5-1.25-.66-2.33-.66h-.65c-.84.08-1.67.4-2.42.83-.84.42-1.6 1.08-2.25 1.92v-3.75c.66-.75 1.4-1.34 2.4-1.67.93-.42 2-.58 3.26-.58 1.75 0 3.17.4 4.42 1.33 1.17.92 1.83 2.33 1.83 4.25V54c0 .33.08.58.16.75.08.17.25.17.5.17.17 0 .42-.1.75-.25.1-.1.43-.25.84-.6zM137.86 40.08v2.25c.92-.83 1.75-1.5 2.58-1.9s1.67-.68 2.42-.68c1.08 0 2.08.25 2.92.75.83.5 1.58 1.25 2.16 2.33.75-.83 1.6-1.58 2.5-2.16s2-.92 3.17-.92c1.76 0 3.1.58 4.1 1.83s1.5 2.83 1.5 4.83V57.1h-3.42v-10.5c0-1.25-.34-2.25-1.1-2.92-.65-.66-1.5-1-2.5-1-.32 0-.65.1-1 .25s-.74.35-1.07.6c-.24.16-.57.4-.82.58-.25.25-.58.5-.83.75v12.34h-3.25V46.5c0-1.33-.34-2.33-.92-3-.58-.58-1.33-.92-2.17-.92-.57 0-1.07.1-1.57.25s-.92.34-1.42.67c-.16.17-.4.33-.66.58s-.4.42-.66.67v12.33h-3.42v-17h3.5zM166.36 44.5v9.25c.25.08.5.17.83.25.24.08.58.08.9.17.34.08.6.08.93.08.25 0 .58 0 .83 0 1.5 0 2.75-.5 3.75-1.58 1-1 1.5-2.34 1.5-4 0-1.84-.4-3.25-1.32-4.34-.84-1.08-2-1.66-3.42-1.66-.33 0-.67 0-.92.08-.33.08-.58.17-.83.25-.32.17-.66.33-1 .58-.5.34-.82.67-1.24.92zm0-3.25c.75-.5 1.5-.92 2.25-1.17s1.6-.4 2.43-.4c2.16 0 3.9.82 5.25 2.4 1.4 1.6 2.08 3.67 2.08 6.1 0 2.9-.83 5.15-2.42 6.74s-3.83 2.4-6.66 2.4c-.25 0-.42 0-.67 0s-.4 0-.66-.07c-.9-.08-1.83-.17-2.66-.42-.84-.16-1.67-.4-2.34-.75v-25h3.42v10.17zM185.36 44.42c-1 1.08-1.58 2.4-1.58 4.08 0 1.83.5 3.25 1.5 4.33 1 1.1 2.33 1.67 4 1.67 1.83 0 3.25-.5 4.25-1.58s1.58-2.5 1.58-4.42c0-1.67-.57-3-1.66-4.08-1.08-1.1-2.5-1.6-4.16-1.6-1.6-.07-2.92.5-3.92 1.6m4-4.67c2.67 0 4.92.83 6.58 2.5 1.75 1.67 2.6 3.75 2.6 6.25 0 2.67-.85 4.83-2.6 6.5-1.66 1.67-3.9 2.5-6.66 2.5-2.6 0-4.75-.83-6.42-2.58-1.67-1.67-2.58-3.84-2.58-6.42 0-2.42.83-4.5 2.58-6.17 1.83-1.75 3.92-2.58 6.5-2.58zM205.53 44.42c-1 1.08-1.6 2.4-1.6 4.08 0 1.83.5 3.25 1.5 4.33 1 1.1 2.35 1.67 4 1.67 1.85 0 3.26-.5 4.26-1.58s1.58-2.5 1.58-4.42c0-1.67-.6-3-1.67-4.08-1.07-1.1-2.5-1.6-4.16-1.6-1.58-.07-2.83.5-3.9 1.6m4-4.67c2.65 0 4.9.83 6.57 2.5 1.76 1.67 2.6 3.75 2.6 6.25 0 2.67-.84 4.83-2.6 6.5-1.66 1.67-3.9 2.5-6.66 2.5-2.58 0-4.75-.83-6.4-2.58-1.68-1.67-2.6-3.84-2.6-6.42 0-2.42.84-4.5 2.6-6.17 1.82-1.75 4-2.58 6.5-2.58z" class="st1"/><path d="M225.03 31.25h-3.42v25.92h3.43V44.92c.4-.5.9-.92 1.25-1.25.4-.34.83-.6 1.25-.84.25-.16.58-.25.83-.25.25-.08.58-.08.92-.08 1 0 1.83.33 2.4 1.08s.93 1.75.93 3v10.6h3.43V46.74c0-2.33-.6-4.08-1.67-5.25-1.08-1.17-2.5-1.75-4.17-1.75-.92 0-1.84.25-2.76.67s-1.66 1.08-2.33 1.83h-.07v-11zM244.53 39.75c-1.25 0-2.34.17-3.25.58-.92.42-1.75.92-2.42 1.67v3.75c.67-.83 1.5-1.5 2.25-1.92.84-.4 1.6-.75 2.43-.83h.66c1 0 1.83.25 2.33.67.5.5.75 1.25.75 2.25v.9l-3 1.1c-.17.08-.25.08-.42.16-.17.1-.25.1-.42.17-1.25.42-2.4 1-3.4 1.75-1 .67-1.6 1.83-1.6 3.33 0 1.1.42 2.1 1.17 2.92.76.83 1.76 1.25 3 1.25.76 0 1.6-.17 2.34-.42s1.5-.75 2.25-1.25c.16.6.4 1.1.83 1.34.4.25 1 .4 1.75.4.16 0 .33 0 .5 0 .16 0 .25-.07.4-.07.35-.08.68-.17 1-.42.35-.16.85-.4 1.35-.83v-2c-.42.25-.75.5-1.1.67s-.57.25-.74.25-.34-.1-.5-.17c-.1-.17-.17-.33-.17-.75v-8.83c0-1.92-.6-3.34-1.84-4.25s-2.42-1.42-4.17-1.42m-.17 15.33c-.67 0-1.25-.25-1.75-.66-.4-.42-.66-1-.66-1.75 0-1 .5-1.84 1.6-2.42 1.07-.58 2.32-1.17 3.74-1.67v5c-.42.42-.92.75-1.42 1-.42.42-.92.5-1.5.5m8.83-1zM264.03 39.75c-.75 0-1.6.33-2.42 1-.82.67-1.66 1.75-2.5 3.17h-.07V40h-3.42v17h3.43v-8.75c0-1.5.4-2.67 1.16-3.75.83-1 1.74-1.5 2.9-1.5.26 0 .6.08.93.17.33.16.66.33 1.08.5.26.16.43.25.68.4.16.18.4.35.58.5l1.75-2.9c-.4-.42-.82-.75-1.24-1-.42-.25-.83-.5-1.17-.67-.26-.08-.6-.17-.84-.25-.25.08-.58 0-.83 0" class="st2"/><path d="M283.86 31.25h-3.42v9.25c-.58-.17-1.08-.33-1.5-.42-.4-.08-.9-.16-1.33-.16h-.74c-2.5 0-4.5.83-6.08 2.33-1.6 1.58-2.42 3.58-2.42 6.08 0 2.75.75 4.92 2.25 6.5 1.5 1.6 3.5 2.42 6 2.42h7.18v-26h.08zm-6.83 23c-1.92 0-3.34-.5-4.1-1.58s-1.15-2.42-1.15-4c0-1.75.5-3.25 1.5-4.25 1-1.1 2.33-1.6 3.9-1.6.26 0 .6 0 .85 0s.5.1.75.1c.25.08.5.08.75.16.25.1.5.17.83.25v10.84h-3.33v.08zM312.6 40.08h-3.57l-4.5 10.34-4.34-10.34h-2.5l-4.34 10.34-4.42-10.34h-3.66l7.58 17.34h1.08l5-11.92 5.1 11.92h1.07zM321.44 39.75c-2.5 0-4.66.83-6.4 2.5-1.76 1.67-2.6 3.75-2.6 6.17 0 2.58.84 4.75 2.5 6.4 1.67 1.68 3.84 2.6 6.42 2.6 2.75 0 4.92-.84 6.67-2.5 1.66-1.67 2.58-3.84 2.58-6.5 0-2.5-.82-4.6-2.57-6.25-1.67-1.6-3.92-2.42-6.6-2.42m-.07 14.67c-1.58 0-2.92-.6-4-1.67-1-1.08-1.5-2.58-1.5-4.33 0-1.67.5-3 1.58-4.1 1-1.07 2.34-1.57 3.92-1.65 1.67 0 3.08.5 4.17 1.58 1.08 1.08 1.66 2.42 1.66 4.08 0 1.84-.5 3.34-1.6 4.42-1 1.17-2.4 1.67-4.24 1.67M341.6 39.75c-2.5 0-4.66.83-6.4 2.5s-2.6 3.75-2.6 6.17c0 2.58.84 4.75 2.5 6.4 1.68 1.68 3.84 2.6 6.43 2.6 2.75 0 4.9-.84 6.66-2.5 1.66-1.67 2.58-3.84 2.58-6.5 0-2.5-.84-4.6-2.6-6.25-1.65-1.6-3.9-2.42-6.57-2.42m0 14.67c-1.57 0-2.9-.6-4-1.67-1-1.08-1.5-2.58-1.5-4.33 0-1.67.5-3 1.6-4.1 1-1.07 2.33-1.57 3.9-1.65 1.68 0 3.1.5 4.18 1.58 1.08 1.08 1.66 2.42 1.66 4.08 0 1.84-.5 3.34-1.58 4.42-1.08 1.17-2.5 1.67-4.25 1.67" class="st2"/><path d="M368.6 31.25h-3.4v9.25c-.6-.17-1.1-.33-1.5-.42-.42-.08-.92-.16-1.34-.16h-.67c-2.5 0-4.5.83-6.1 2.33-1.57 1.58-2.4 3.58-2.4 6.08 0 2.75.74 4.92 2.24 6.5 1.5 1.6 3.5 2.42 6 2.42h7.17v-26zm-6.82 23c-1.92 0-3.34-.5-4.1-1.58s-1.15-2.42-1.15-4c0-1.75.5-3.25 1.5-4.25 1-1.1 2.33-1.6 3.9-1.6.26 0 .6 0 .85 0s.5.1.75.1c.25.08.5.08.75.16.25.1.5.17.83.25v10.84h-3.32v.08zM377.36 39.75c-1.67 0-3.08.42-4.08 1.25s-1.5 1.92-1.5 3.42c0 1.16.4 2.08 1.25 2.9.83.76 1.75 1.5 2.75 2.1.5.33 1 .58 1.5.83s.9.5 1.25.75c.33.25.66.58.83.83.25.25.33.5.33.84 0 .58-.26 1.08-.76 1.4-.5.35-1.08.5-1.75.6-.67 0-1.5-.17-2.5-.6-1-.32-2-.9-3.1-1.74V56c.6.33 1.18.58 1.76.75.58.25 1.08.42 1.58.5.42.08.84.17 1.34.25.4 0 .83.08 1.33.08 1.6 0 3-.4 4-1.33 1.1-.92 1.6-2.08 1.6-3.58 0-.42-.1-.75-.17-1.1-.1-.32-.34-.65-.6-1.07-.24-.42-.65-.83-1.15-1.25-.5-.42-1.17-.92-1.92-1.42-1.5-.9-2.58-1.58-3.17-2.08-.67-.5-.92-.92-.92-1.33s.16-.84.58-1.1c.42-.24.92-.4 1.67-.4.66 0 1.4.16 2.25.4.83.26 1.75.76 2.66 1.35v-3.34c-.9-.5-1.75-.83-2.58-1.08-.92-.33-1.75-.5-2.5-.5m5 1.42z" class="st2"/><path d="M388.44 35.92c.25 0 .42 0 .5-.1.17-.07.17-.24.17-.4s-.07-.25-.16-.42c-.08-.08-.25-.17-.4-.17h-.93v1.1h.84zm-1.4-1.5h1.5c.32 0 .57.08.74.16.16.17.25.25.33.42v.33c0 .25-.07.5-.24.67-.17.17-.42.25-.75.33l.26.17.17.17.16.25.16.33.42.67h-.67l-.32-.6c-.1-.15-.17-.32-.25-.5l-.25-.24-.25-.16H387.44v1.5h-.58v-3.5h.17zm4.07 1.66c0-.75-.24-1.33-.74-1.9-.5-.5-1.17-.76-1.92-.76s-1.33.25-1.9.75c-.5.5-.76 1.16-.76 1.9s.25 1.43.75 1.93 1.16.83 1.9.83 1.43-.25 1.93-.83c.5-.5.75-1.17.75-1.92zm.6 0c0 .92-.34 1.67-.92 2.25-.6.6-1.42.92-2.25.92-.92 0-1.67-.33-2.25-.92-.67-.66-.92-1.4-.92-2.25s.33-1.66.92-2.25c.66-.66 1.4-.9 2.25-.9.9 0 1.66.32 2.25.9.58.6.9 1.34.9 2.25z" class="st0"/><path d="M296.36 68.42c-.08-.42-.33-1.67-1.58-1.67-1.1 0-1.34 1-1.34 1.58 0 1 .5 1.25 2.1 2 1.15.6 2 1.17 2 2.75 0 2-1.43 2.75-2.68 2.75-.42 0-1.33-.08-2-.75-.58-.66-.75-1.4-.83-1.83l1-.25c.08.33.16.83.5 1.33.25.34.66.6 1.25.6 1.08 0 1.5-.85 1.5-1.76 0-1.1-.6-1.5-1.34-1.84-1.75-.83-2.66-1.25-2.66-2.9 0-1.6 1-2.68 2.4-2.68 2 0 2.43 1.75 2.6 2.33l-.92.34zM302.7 66h1.08v9.75h-1.1zM309.7 66h1.33l3.08 7.58-.07-7.58h1v9.75h-1.1l-3.32-8.33.1 8.33h-1zM324.78 68.75c-.17-.83-.34-2-1.42-2-.92 0-1.25.83-1.42 1.33-.16.6-.33 1.34-.33 2.84 0 1.25.1 2.75.76 3.58.25.33.67.42.92.42 1.08 0 1.25-1 1.4-1.92l1 .17c-.24 1.33-.74 2.66-2.5 2.66-.65 0-1.32-.25-1.65-.66-.84-.92-1.17-2.6-1.17-4.25 0-.75.08-3.17 1.17-4.5.5-.6 1.16-.75 1.66-.75 1.83 0 2.24 1.58 2.4 2.66l-.82.42zM331.94 70.17h2.6v1h-2.6v3.58h3.42v1h-4.5V66h4.42v.92h-3.34zM350.36 74.83h1.42v.84h-4.1v-.84h1.6V67.5c-.25.42-.67.83-1.6 1.42v-1.1c.76-.4 1.5-1.24 1.93-1.9h.76v8.9zM358.2 69.08c0 .42 0 2.25 1.4 2.25.84 0 1.5-.83 1.5-2.25 0-.66-.16-2.25-1.4-2.25-1.1 0-1.5 1.1-1.5 2.25m0 4.6c.08.32.24 1.24 1.33 1.24.9 0 1.33-.84 1.4-1.42.26-.83.35-1.75.35-2.67-.25.6-.6 1.42-1.84 1.42-1.58 0-2.33-1.67-2.33-3.17 0-1.16.5-3.33 2.6-3.33 2.4 0 2.58 3.17 2.58 4.58 0 2.75-.5 5.42-2.84 5.42-1.83 0-2.08-1.33-2.16-1.92l.9-.16zM368.44 69.08c0 .42 0 2.25 1.42 2.25.83 0 1.5-.83 1.5-2.25 0-.66-.17-2.25-1.42-2.25-1.08 0-1.5 1.1-1.5 2.25m0 4.6c.1.32.25 1.24 1.34 1.24.9 0 1.33-.84 1.4-1.42.26-.83.35-1.75.35-2.67-.25.6-.6 1.42-1.84 1.42-1.6 0-2.34-1.67-2.34-3.17 0-1.16.5-3.33 2.58-3.33 2.42 0 2.6 3.17 2.6 4.58 0 2.75-.5 5.42-2.85 5.42-1.84 0-2.1-1.33-2.17-1.92l.9-.16zM377.94 71.25l.17-5.25h4.18l-.1 1h-3.15l-.1 3.08c.18-.33.5-.9 1.6-.9 2 0 2.33 2.15 2.33 3.24 0 .66-.08 1.9-.83 2.66-.42.42-1.1.75-1.84.75-1.92 0-2.34-1.58-2.5-2.25l.9-.25c.18.5.43 1.67 1.6 1.67 1.5 0 1.5-2 1.5-2.5 0-1.17-.26-2.42-1.42-2.42-.92 0-1.25.67-1.5 1.34l-.84-.17z" class="st1"/></svg>